<?xml version="1.0" encoding="UTF-8" standalone="no"?><!DOCTYPE svg PUBLIC "-//W3C//DTD SVG 1.1//EN" "http://www.w3.org/Graphics/SVG/1.1/DTD/svg11.dtd"><!-- Generated by graphviz version 2.40.1 (20161225.0304)
 --><!-- Title: Tree Pages: 1 --><svg xmlns="http://www.w3.org/2000/svg" xmlns:xlink="http://www.w3.org/1999/xlink" width="1199pt" height="400pt" viewBox="0.00 0.00 1198.52 400.00">
<g id="graph0" class="graph" transform="scale(1 1) rotate(0) translate(4 396)">
<title>Tree</title>
<polygon fill="#ffffff" stroke="transparent" points="-4,4 -4,-396 1194.5248,-396 1194.5248,4 -4,4"/>
<!-- 0 -->
<g id="node1" class="node">
<title>0</title>
<path fill="none" stroke="#000000" d="M697.3079,-392.1003C697.3079,-392.1003 474.7579,-392.1003 474.7579,-392.1003 468.7579,-392.1003 462.7579,-386.1003 462.7579,-380.1003 462.7579,-380.1003 462.7579,-328.6997 462.7579,-328.6997 462.7579,-322.6997 468.7579,-316.6997 474.7579,-316.6997 474.7579,-316.6997 697.3079,-316.6997 697.3079,-316.6997 703.3079,-316.6997 709.3079,-322.6997 709.3079,-328.6997 709.3079,-328.6997 709.3079,-380.1003 709.3079,-380.1003 709.3079,-386.1003 703.3079,-392.1003 697.3079,-392.1003"/>
<text text-anchor="middle" x="586.0329" y="-375.4" font-family="Helvetica,sans-Serif" font-size="14.00" fill="#000000">cvssV3_integrityImpact_HIGH &lt;= 0.5</text>
<text text-anchor="middle" x="586.0329" y="-358.6" font-family="Helvetica,sans-Serif" font-size="14.00" fill="#000000">mse = 2.7</text>
<text text-anchor="middle" x="586.0329" y="-341.8" font-family="Helvetica,sans-Serif" font-size="14.00" fill="#000000">samples = 33934</text>
<text text-anchor="middle" x="586.0329" y="-325" font-family="Helvetica,sans-Serif" font-size="14.00" fill="#000000">value = 7.3</text>
</g>
<!-- 1 -->
<g id="node2" class="node">
<title>1</title>
<path fill="none" stroke="#000000" d="M564.1418,-280.9003C564.1418,-280.9003 311.924,-280.9003 311.924,-280.9003 305.924,-280.9003 299.924,-274.9003 299.924,-268.9003 299.924,-268.9003 299.924,-217.4997 299.924,-217.4997 299.924,-211.4997 305.924,-205.4997 311.924,-205.4997 311.924,-205.4997 564.1418,-205.4997 564.1418,-205.4997 570.1418,-205.4997 576.1418,-211.4997 576.1418,-217.4997 576.1418,-217.4997 576.1418,-268.9003 576.1418,-268.9003 576.1418,-274.9003 570.1418,-280.9003 564.1418,-280.9003"/>
<text text-anchor="middle" x="438.0329" y="-264.2" font-family="Helvetica,sans-Serif" font-size="14.00" fill="#000000">cvssV3_privilegesRequired_NONE &lt;= 0.5</text>
<text text-anchor="middle" x="438.0329" y="-247.4" font-family="Helvetica,sans-Serif" font-size="14.00" fill="#000000">mse = 1.3</text>
<text text-anchor="middle" x="438.0329" y="-230.6" font-family="Helvetica,sans-Serif" font-size="14.00" fill="#000000">samples = 16537</text>
<text text-anchor="middle" x="438.0329" y="-213.8" font-family="Helvetica,sans-Serif" font-size="14.00" fill="#000000">value = 6.1</text>
</g>
<!-- 0&#45;&gt;1 -->
<g id="edge1" class="edge">
<title>0-&gt;1</title>
<path fill="none" stroke="#000000" d="M535.9269,-316.7528C523.1488,-307.1519 509.3059,-296.7511 496.1638,-286.8768"/>
<polygon fill="#000000" stroke="#000000" points="498.1846,-284.0172 488.0873,-280.8085 493.9797,-289.6136 498.1846,-284.0172"/>
<text text-anchor="middle" x="491.6015" y="-301.3603" font-family="Helvetica,sans-Serif" font-size="14.00" fill="#000000">True</text>
</g>
<!-- 8 -->
<g id="node9" class="node">
<title>8</title>
<path fill="none" stroke="#000000" d="M864.0987,-280.9003C864.0987,-280.9003 605.9671,-280.9003 605.9671,-280.9003 599.9671,-280.9003 593.9671,-274.9003 593.9671,-268.9003 593.9671,-268.9003 593.9671,-217.4997 593.9671,-217.4997 593.9671,-211.4997 599.9671,-205.4997 605.9671,-205.4997 605.9671,-205.4997 864.0987,-205.4997 864.0987,-205.4997 870.0987,-205.4997 876.0987,-211.4997 876.0987,-217.4997 876.0987,-217.4997 876.0987,-268.9003 876.0987,-268.9003 876.0987,-274.9003 870.0987,-280.9003 864.0987,-280.9003"/>
<text text-anchor="middle" x="735.0329" y="-264.2" font-family="Helvetica,sans-Serif" font-size="14.00" fill="#000000">cvssV3_confidentialityImpact_HIGH &lt;= 0.5</text>
<text text-anchor="middle" x="735.0329" y="-247.4" font-family="Helvetica,sans-Serif" font-size="14.00" fill="#000000">mse = 1.3</text>
<text text-anchor="middle" x="735.0329" y="-230.6" font-family="Helvetica,sans-Serif" font-size="14.00" fill="#000000">samples = 17397</text>
<text text-anchor="middle" x="735.0329" y="-213.8" font-family="Helvetica,sans-Serif" font-size="14.00" fill="#000000">value = 8.4</text>
</g>
<!-- 0&#45;&gt;8 -->
<g id="edge8" class="edge">
<title>0-&gt;8</title>
<path fill="none" stroke="#000000" d="M636.4775,-316.7528C649.3419,-307.1519 663.2783,-296.7511 676.5092,-286.8768"/>
<polygon fill="#000000" stroke="#000000" points="678.7194,-289.5945 684.6402,-280.8085 674.5327,-283.9846 678.7194,-289.5945"/>
<text text-anchor="middle" x="681.0462" y="-301.3488" font-family="Helvetica,sans-Serif" font-size="14.00" fill="#000000">False</text>
</g>
<!-- 2 -->
<g id="node3" class="node">
<title>2</title>
<path fill="none" stroke="#000000" d="M270.0987,-169.7003C270.0987,-169.7003 11.9671,-169.7003 11.9671,-169.7003 5.9671,-169.7003 -.0329,-163.7003 -.0329,-157.7003 -.0329,-157.7003 -.0329,-106.2997 -.0329,-106.2997 -.0329,-100.2997 5.9671,-94.2997 11.9671,-94.2997 11.9671,-94.2997 270.0987,-94.2997 270.0987,-94.2997 276.0987,-94.2997 282.0987,-100.2997 282.0987,-106.2997 282.0987,-106.2997 282.0987,-157.7003 282.0987,-157.7003 282.0987,-163.7003 276.0987,-169.7003 270.0987,-169.7003"/>
<text text-anchor="middle" x="141.0329" y="-153" font-family="Helvetica,sans-Serif" font-size="14.00" fill="#000000">cvssV3_confidentialityImpact_HIGH &lt;= 0.5</text>
<text text-anchor="middle" x="141.0329" y="-136.2" font-family="Helvetica,sans-Serif" font-size="14.00" fill="#000000">mse = 0.9</text>
<text text-anchor="middle" x="141.0329" y="-119.4" font-family="Helvetica,sans-Serif" font-size="14.00" fill="#000000">samples = 5285</text>
<text text-anchor="middle" x="141.0329" y="-102.6" font-family="Helvetica,sans-Serif" font-size="14.00" fill="#000000">value = 5.3</text>
</g>
<!-- 1&#45;&gt;2 -->
<g id="edge2" class="edge">
<title>1-&gt;2</title>
<path fill="none" stroke="#000000" d="M337.4822,-205.5528C309.6626,-195.1368 279.3279,-183.7791 251.0025,-173.1738"/>
<polygon fill="#000000" stroke="#000000" points="252.0724,-169.8371 241.48,-169.6085 249.6179,-176.3927 252.0724,-169.8371"/>
</g>
<!-- 5 -->
<g id="node6" class="node">
<title>5</title>
<path fill="none" stroke="#000000" d="M567.4921,-169.7003C567.4921,-169.7003 312.5737,-169.7003 312.5737,-169.7003 306.5737,-169.7003 300.5737,-163.7003 300.5737,-157.7003 300.5737,-157.7003 300.5737,-106.2997 300.5737,-106.2997 300.5737,-100.2997 306.5737,-94.2997 312.5737,-94.2997 312.5737,-94.2997 567.4921,-94.2997 567.4921,-94.2997 573.4921,-94.2997 579.4921,-100.2997 579.4921,-106.2997 579.4921,-106.2997 579.4921,-157.7003 579.4921,-157.7003 579.4921,-163.7003 573.4921,-169.7003 567.4921,-169.7003"/>
<text text-anchor="middle" x="440.0329" y="-153" font-family="Helvetica,sans-Serif" font-size="14.00" fill="#000000">cvssV3_confidentialityImpact_LOW &lt;= 0.5</text>
<text text-anchor="middle" x="440.0329" y="-136.2" font-family="Helvetica,sans-Serif" font-size="14.00" fill="#000000">mse = 1.2</text>
<text text-anchor="middle" x="440.0329" y="-119.4" font-family="Helvetica,sans-Serif" font-size="14.00" fill="#000000">samples = 11252</text>
<text text-anchor="middle" x="440.0329" y="-102.6" font-family="Helvetica,sans-Serif" font-size="14.00" fill="#000000">value = 6.4</text>
</g>
<!-- 1&#45;&gt;5 -->
<g id="edge5" class="edge">
<title>1-&gt;5</title>
<path fill="none" stroke="#000000" d="M438.71,-205.5528C438.8599,-197.22 439.0206,-188.2845 439.1765,-179.6137"/>
<polygon fill="#000000" stroke="#000000" points="442.676,-179.6698 439.3565,-169.6085 435.6771,-179.5439 442.676,-179.6698"/>
</g>
<!-- 3 -->
<g id="node4" class="node">
<title>3</title>
<path fill="none" stroke="#000000" d="M162.7343,-58.6014C162.7343,-58.6014 71.3315,-58.6014 71.3315,-58.6014 65.3315,-58.6014 59.3315,-52.6014 59.3315,-46.6014 59.3315,-46.6014 59.3315,-11.7986 59.3315,-11.7986 59.3315,-5.7986 65.3315,.2014 71.3315,.2014 71.3315,.2014 162.7343,.2014 162.7343,.2014 168.7343,.2014 174.7343,-5.7986 174.7343,-11.7986 174.7343,-11.7986 174.7343,-46.6014 174.7343,-46.6014 174.7343,-52.6014 168.7343,-58.6014 162.7343,-58.6014"/>
<text text-anchor="middle" x="117.0329" y="-41.8" font-family="Helvetica,sans-Serif" font-size="14.00" fill="#000000">mse = 0.8</text>
<text text-anchor="middle" x="117.0329" y="-25" font-family="Helvetica,sans-Serif" font-size="14.00" fill="#000000">samples = 3778</text>
<text text-anchor="middle" x="117.0329" y="-8.2" font-family="Helvetica,sans-Serif" font-size="14.00" fill="#000000">value = 5.1</text>
</g>
<!-- 2&#45;&gt;3 -->
<g id="edge3" class="edge">
<title>2-&gt;3</title>
<path fill="none" stroke="#000000" d="M132.2325,-94.3048C130.2517,-85.8204 128.1454,-76.7985 126.1519,-68.2596"/>
<polygon fill="#000000" stroke="#000000" points="129.5596,-67.461 123.8777,-58.5186 122.7429,-69.0525 129.5596,-67.461"/>
</g>
<!-- 4 -->
<g id="node5" class="node">
<title>4</title>
<path fill="none" stroke="#000000" d="M295.7343,-58.6014C295.7343,-58.6014 204.3315,-58.6014 204.3315,-58.6014 198.3315,-58.6014 192.3315,-52.6014 192.3315,-46.6014 192.3315,-46.6014 192.3315,-11.7986 192.3315,-11.7986 192.3315,-5.7986 198.3315,.2014 204.3315,.2014 204.3315,.2014 295.7343,.2014 295.7343,.2014 301.7343,.2014 307.7343,-5.7986 307.7343,-11.7986 307.7343,-11.7986 307.7343,-46.6014 307.7343,-46.6014 307.7343,-52.6014 301.7343,-58.6014 295.7343,-58.6014"/>
<text text-anchor="middle" x="250.0329" y="-41.8" font-family="Helvetica,sans-Serif" font-size="14.00" fill="#000000">mse = 0.7</text>
<text text-anchor="middle" x="250.0329" y="-25" font-family="Helvetica,sans-Serif" font-size="14.00" fill="#000000">samples = 1507</text>
<text text-anchor="middle" x="250.0329" y="-8.2" font-family="Helvetica,sans-Serif" font-size="14.00" fill="#000000">value = 5.9</text>
</g>
<!-- 2&#45;&gt;4 -->
<g id="edge4" class="edge">
<title>2-&gt;4</title>
<path fill="none" stroke="#000000" d="M181.0015,-94.3048C190.9755,-84.8982 201.6499,-74.8309 211.5504,-65.4936"/>
<polygon fill="#000000" stroke="#000000" points="214.0725,-67.926 218.946,-58.5186 209.2696,-62.8336 214.0725,-67.926"/>
</g>
<!-- 6 -->
<g id="node7" class="node">
<title>6</title>
<path fill="none" stroke="#000000" d="M456.7343,-58.6014C456.7343,-58.6014 365.3315,-58.6014 365.3315,-58.6014 359.3315,-58.6014 353.3315,-52.6014 353.3315,-46.6014 353.3315,-46.6014 353.3315,-11.7986 353.3315,-11.7986 353.3315,-5.7986 359.3315,.2014 365.3315,.2014 365.3315,.2014 456.7343,.2014 456.7343,.2014 462.7343,.2014 468.7343,-5.7986 468.7343,-11.7986 468.7343,-11.7986 468.7343,-46.6014 468.7343,-46.6014 468.7343,-52.6014 462.7343,-58.6014 456.7343,-58.6014"/>
<text text-anchor="middle" x="411.0329" y="-41.8" font-family="Helvetica,sans-Serif" font-size="14.00" fill="#000000">mse = 1.2</text>
<text text-anchor="middle" x="411.0329" y="-25" font-family="Helvetica,sans-Serif" font-size="14.00" fill="#000000">samples = 7215</text>
<text text-anchor="middle" x="411.0329" y="-8.2" font-family="Helvetica,sans-Serif" font-size="14.00" fill="#000000">value = 6.7</text>
</g>
<!-- 5&#45;&gt;6 -->
<g id="edge6" class="edge">
<title>5-&gt;6</title>
<path fill="none" stroke="#000000" d="M429.399,-94.3048C427.0056,-85.8204 424.4605,-76.7985 422.0517,-68.2596"/>
<polygon fill="#000000" stroke="#000000" points="425.3874,-67.1927 419.3037,-58.5186 418.6503,-69.0933 425.3874,-67.1927"/>
</g>
<!-- 7 -->
<g id="node8" class="node">
<title>7</title>
<path fill="none" stroke="#000000" d="M589.7343,-58.6014C589.7343,-58.6014 498.3315,-58.6014 498.3315,-58.6014 492.3315,-58.6014 486.3315,-52.6014 486.3315,-46.6014 486.3315,-46.6014 486.3315,-11.7986 486.3315,-11.7986 486.3315,-5.7986 492.3315,.2014 498.3315,.2014 498.3315,.2014 589.7343,.2014 589.7343,.2014 595.7343,.2014 601.7343,-5.7986 601.7343,-11.7986 601.7343,-11.7986 601.7343,-46.6014 601.7343,-46.6014 601.7343,-52.6014 595.7343,-58.6014 589.7343,-58.6014"/>
<text text-anchor="middle" x="544.0329" y="-41.8" font-family="Helvetica,sans-Serif" font-size="14.00" fill="#000000">mse = 0.6</text>
<text text-anchor="middle" x="544.0329" y="-25" font-family="Helvetica,sans-Serif" font-size="14.00" fill="#000000">samples = 4037</text>
<text text-anchor="middle" x="544.0329" y="-8.2" font-family="Helvetica,sans-Serif" font-size="14.00" fill="#000000">value = 5.8</text>
</g>
<!-- 5&#45;&gt;7 -->
<g id="edge7" class="edge">
<title>5-&gt;7</title>
<path fill="none" stroke="#000000" d="M478.1681,-94.3048C487.5913,-84.9904 497.6697,-75.0283 507.0376,-65.7684"/>
<polygon fill="#000000" stroke="#000000" points="509.7205,-68.0378 514.372,-58.5186 504.7995,-63.0594 509.7205,-68.0378"/>
</g>
<!-- 9 -->
<g id="node10" class="node">
<title>9</title>
<path fill="none" stroke="#000000" d="M856.6474,-169.7003C856.6474,-169.7003 611.4184,-169.7003 611.4184,-169.7003 605.4184,-169.7003 599.4184,-163.7003 599.4184,-157.7003 599.4184,-157.7003 599.4184,-106.2997 599.4184,-106.2997 599.4184,-100.2997 605.4184,-94.2997 611.4184,-94.2997 611.4184,-94.2997 856.6474,-94.2997 856.6474,-94.2997 862.6474,-94.2997 868.6474,-100.2997 868.6474,-106.2997 868.6474,-106.2997 868.6474,-157.7003 868.6474,-157.7003 868.6474,-163.7003 862.6474,-169.7003 856.6474,-169.7003"/>
<text text-anchor="middle" x="734.0329" y="-153" font-family="Helvetica,sans-Serif" font-size="14.00" fill="#000000">cvssV3_attackVector_NETWORK &lt;= 0.5</text>
<text text-anchor="middle" x="734.0329" y="-136.2" font-family="Helvetica,sans-Serif" font-size="14.00" fill="#000000">mse = 0.9</text>
<text text-anchor="middle" x="734.0329" y="-119.4" font-family="Helvetica,sans-Serif" font-size="14.00" fill="#000000">samples = 2032</text>
<text text-anchor="middle" x="734.0329" y="-102.6" font-family="Helvetica,sans-Serif" font-size="14.00" fill="#000000">value = 6.8</text>
</g>
<!-- 8&#45;&gt;9 -->
<g id="edge9" class="edge">
<title>8-&gt;9</title>
<path fill="none" stroke="#000000" d="M734.6943,-205.5528C734.6194,-197.22 734.5391,-188.2845 734.4611,-179.6137"/>
<polygon fill="#000000" stroke="#000000" points="737.961,-179.5766 734.3711,-169.6085 730.9613,-179.6396 737.961,-179.5766"/>
</g>
<!-- 12 -->
<g id="node13" class="node">
<title>12</title>
<path fill="none" stroke="#000000" d="M1144.6474,-169.7003C1144.6474,-169.7003 899.4184,-169.7003 899.4184,-169.7003 893.4184,-169.7003 887.4184,-163.7003 887.4184,-157.7003 887.4184,-157.7003 887.4184,-106.2997 887.4184,-106.2997 887.4184,-100.2997 893.4184,-94.2997 899.4184,-94.2997 899.4184,-94.2997 1144.6474,-94.2997 1144.6474,-94.2997 1150.6474,-94.2997 1156.6474,-100.2997 1156.6474,-106.2997 1156.6474,-106.2997 1156.6474,-157.7003 1156.6474,-157.7003 1156.6474,-163.7003 1150.6474,-169.7003 1144.6474,-169.7003"/>
<text text-anchor="middle" x="1022.0329" y="-153" font-family="Helvetica,sans-Serif" font-size="14.00" fill="#000000">cvssV3_attackVector_NETWORK &lt;= 0.5</text>
<text text-anchor="middle" x="1022.0329" y="-136.2" font-family="Helvetica,sans-Serif" font-size="14.00" fill="#000000">mse = 0.9</text>
<text text-anchor="middle" x="1022.0329" y="-119.4" font-family="Helvetica,sans-Serif" font-size="14.00" fill="#000000">samples = 15365</text>
<text text-anchor="middle" x="1022.0329" y="-102.6" font-family="Helvetica,sans-Serif" font-size="14.00" fill="#000000">value = 8.6</text>
</g>
<!-- 8&#45;&gt;12 -->
<g id="edge12" class="edge">
<title>8-&gt;12</title>
<path fill="none" stroke="#000000" d="M832.198,-205.5528C858.9641,-195.1821 888.1394,-183.8779 915.4089,-173.3122"/>
<polygon fill="#000000" stroke="#000000" points="916.9078,-176.485 924.9679,-169.6085 914.3788,-169.9578 916.9078,-176.485"/>
</g>
<!-- 10 -->
<g id="node11" class="node">
<title>10</title>
<path fill="none" stroke="#000000" d="M743.9523,-58.6014C743.9523,-58.6014 660.1135,-58.6014 660.1135,-58.6014 654.1135,-58.6014 648.1135,-52.6014 648.1135,-46.6014 648.1135,-46.6014 648.1135,-11.7986 648.1135,-11.7986 648.1135,-5.7986 654.1135,.2014 660.1135,.2014 660.1135,.2014 743.9523,.2014 743.9523,.2014 749.9523,.2014 755.9523,-5.7986 755.9523,-11.7986 755.9523,-11.7986 755.9523,-46.6014 755.9523,-46.6014 755.9523,-52.6014 749.9523,-58.6014 743.9523,-58.6014"/>
<text text-anchor="middle" x="702.0329" y="-41.8" font-family="Helvetica,sans-Serif" font-size="14.00" fill="#000000">mse = 0.7</text>
<text text-anchor="middle" x="702.0329" y="-25" font-family="Helvetica,sans-Serif" font-size="14.00" fill="#000000">samples = 423</text>
<text text-anchor="middle" x="702.0329" y="-8.2" font-family="Helvetica,sans-Serif" font-size="14.00" fill="#000000">value = 5.7</text>
</g>
<!-- 9&#45;&gt;10 -->
<g id="edge10" class="edge">
<title>9-&gt;10</title>
<path fill="none" stroke="#000000" d="M722.299,-94.3048C719.6579,-85.8204 716.8496,-76.7985 714.1915,-68.2596"/>
<polygon fill="#000000" stroke="#000000" points="717.4734,-67.0265 711.1593,-58.5186 710.7897,-69.107 717.4734,-67.0265"/>
</g>
<!-- 11 -->
<g id="node12" class="node">
<title>11</title>
<path fill="none" stroke="#000000" d="M876.7343,-58.6014C876.7343,-58.6014 785.3315,-58.6014 785.3315,-58.6014 779.3315,-58.6014 773.3315,-52.6014 773.3315,-46.6014 773.3315,-46.6014 773.3315,-11.7986 773.3315,-11.7986 773.3315,-5.7986 779.3315,.2014 785.3315,.2014 785.3315,.2014 876.7343,.2014 876.7343,.2014 882.7343,.2014 888.7343,-5.7986 888.7343,-11.7986 888.7343,-11.7986 888.7343,-46.6014 888.7343,-46.6014 888.7343,-52.6014 882.7343,-58.6014 876.7343,-58.6014"/>
<text text-anchor="middle" x="831.0329" y="-41.8" font-family="Helvetica,sans-Serif" font-size="14.00" fill="#000000">mse = 0.6</text>
<text text-anchor="middle" x="831.0329" y="-25" font-family="Helvetica,sans-Serif" font-size="14.00" fill="#000000">samples = 1609</text>
<text text-anchor="middle" x="831.0329" y="-8.2" font-family="Helvetica,sans-Serif" font-size="14.00" fill="#000000">value = 7.0</text>
</g>
<!-- 9&#45;&gt;11 -->
<g id="edge11" class="edge">
<title>9-&gt;11</title>
<path fill="none" stroke="#000000" d="M769.6013,-94.3048C778.3032,-85.0826 787.6042,-75.2255 796.2679,-66.0437"/>
<polygon fill="#000000" stroke="#000000" points="799.0511,-68.194 803.3684,-58.5186 793.9598,-63.3899 799.0511,-68.194"/>
</g>
<!-- 13 -->
<g id="node14" class="node">
<title>13</title>
<path fill="none" stroke="#000000" d="M1037.7343,-58.6014C1037.7343,-58.6014 946.3315,-58.6014 946.3315,-58.6014 940.3315,-58.6014 934.3315,-52.6014 934.3315,-46.6014 934.3315,-46.6014 934.3315,-11.7986 934.3315,-11.7986 934.3315,-5.7986 940.3315,.2014 946.3315,.2014 946.3315,.2014 1037.7343,.2014 1037.7343,.2014 1043.7343,.2014 1049.7343,-5.7986 1049.7343,-11.7986 1049.7343,-11.7986 1049.7343,-46.6014 1049.7343,-46.6014 1049.7343,-52.6014 1043.7343,-58.6014 1037.7343,-58.6014"/>
<text text-anchor="middle" x="992.0329" y="-41.8" font-family="Helvetica,sans-Serif" font-size="14.00" fill="#000000">mse = 0.2</text>
<text text-anchor="middle" x="992.0329" y="-25" font-family="Helvetica,sans-Serif" font-size="14.00" fill="#000000">samples = 5253</text>
<text text-anchor="middle" x="992.0329" y="-8.2" font-family="Helvetica,sans-Serif" font-size="14.00" fill="#000000">value = 7.7</text>
</g>
<!-- 12&#45;&gt;13 -->
<g id="edge13" class="edge">
<title>12-&gt;13</title>
<path fill="none" stroke="#000000" d="M1011.0324,-94.3048C1008.5564,-85.8204 1005.9235,-76.7985 1003.4316,-68.2596"/>
<polygon fill="#000000" stroke="#000000" points="1006.7503,-67.1377 1000.5889,-58.5186 1000.0306,-69.0987 1006.7503,-67.1377"/>
</g>
<!-- 14 -->
<g id="node15" class="node">
<title>14</title>
<path fill="none" stroke="#000000" d="M1178.5167,-58.6014C1178.5167,-58.6014 1079.5491,-58.6014 1079.5491,-58.6014 1073.5491,-58.6014 1067.5491,-52.6014 1067.5491,-46.6014 1067.5491,-46.6014 1067.5491,-11.7986 1067.5491,-11.7986 1067.5491,-5.7986 1073.5491,.2014 1079.5491,.2014 1079.5491,.2014 1178.5167,.2014 1178.5167,.2014 1184.5167,.2014 1190.5167,-5.7986 1190.5167,-11.7986 1190.5167,-11.7986 1190.5167,-46.6014 1190.5167,-46.6014 1190.5167,-52.6014 1184.5167,-58.6014 1178.5167,-58.6014"/>
<text text-anchor="middle" x="1129.0329" y="-41.8" font-family="Helvetica,sans-Serif" font-size="14.00" fill="#000000">mse = 0.7</text>
<text text-anchor="middle" x="1129.0329" y="-25" font-family="Helvetica,sans-Serif" font-size="14.00" fill="#000000">samples = 10112</text>
<text text-anchor="middle" x="1129.0329" y="-8.2" font-family="Helvetica,sans-Serif" font-size="14.00" fill="#000000">value = 9.1</text>
</g>
<!-- 12&#45;&gt;14 -->
<g id="edge14" class="edge">
<title>12-&gt;14</title>
<path fill="none" stroke="#000000" d="M1061.2682,-94.3048C1071.0591,-84.8982 1081.5377,-74.8309 1091.2565,-65.4936"/>
<polygon fill="#000000" stroke="#000000" points="1093.7301,-67.9707 1098.5164,-58.5186 1088.8804,-62.9229 1093.7301,-67.9707"/>
</g>
</g>
</svg>